<svg width="861" height="168" viewBox="0 0 861 168" fill="none" xmlns="http://www.w3.org/2000/svg">
<path d="M205.477 104.196C205.191 102.306 204.378 100.535 203.131 99.0866L202.888 98.739C202.719 98.374 202.483 98.0438 202.193 97.7657C201.136 95.9618 199.975 94.2209 198.717 92.5518L197.813 90.9703C195.975 87.9702 193.979 85.0695 191.834 82.2804C190.558 80.6379 189.731 78.6912 189.436 76.632C189.512 75.293 189.657 73.9588 189.87 72.6347C190.456 70.5146 190.697 68.3139 190.583 66.1173C190.172 62.5497 189.32 59.0469 188.045 55.6895L187.576 54.2817C186.945 52.2707 186.417 50.2288 185.995 48.1641C185.838 47.5558 185.717 46.9301 185.595 46.3392C185.365 45.0824 185.039 43.8449 184.622 42.6373C182.173 33.9359 177.682 25.9454 171.521 19.3309C165.36 12.7165 157.708 7.66962 149.202 4.61052C140.22 1.70289 130.835 0.230685 121.394 0.248212H114.442C110.532 0.422009 106.691 0.769603 103.007 1.29099C99.3221 0.786983 95.4638 0.422009 91.536 0.248212H84.7405C75.2995 0.230104 65.9149 1.70232 56.933 4.61052C48.4179 7.65846 40.7553 12.6988 34.5847 19.3108C28.414 25.9229 23.9143 33.9149 21.461 42.6199C21.0434 43.8275 20.718 45.065 20.4877 46.3218C20.3661 46.9127 20.227 47.5384 20.0706 48.1467C19.6525 50.2142 19.1186 52.2566 18.4717 54.2643L18.0024 55.6721C16.726 59.0278 15.8792 62.5316 15.4824 66.0999C15.3699 68.3012 15.6045 70.5064 16.1775 72.6347C16.4376 73.9323 16.6232 75.2437 16.7337 76.5625C16.43 78.6193 15.6043 80.564 14.3353 82.2109C12.1812 84.9972 10.1796 87.898 8.3393 90.9007L7.45294 92.4649C6.18821 94.1298 5.02736 95.8711 3.97699 97.6788C3.68113 97.9562 3.43949 98.2863 3.26443 98.6521L3.02111 98.9997C1.7569 100.471 0.942456 102.275 0.67485 104.196C0.624104 105.017 0.737872 105.839 1.00947 106.615C1.28107 107.391 1.70501 108.105 2.2564 108.715L2.37806 108.871C4.22434 111.003 6.7453 112.439 9.52112 112.938C10.2003 113.006 10.8703 113.145 11.5198 113.355C11.4431 113.549 11.4019 113.755 11.3981 113.964C11.1896 114.798 10.9636 115.702 10.7377 116.397C10.616 116.936 10.4944 117.422 10.3901 117.839C10.0502 118.755 9.9369 119.738 10.0599 120.707C10.3161 122.008 10.9055 123.221 11.7707 124.226C12.6359 125.231 13.7471 125.995 14.9957 126.442C14.6886 127.382 14.5855 128.377 14.6934 129.36C14.8013 130.343 15.1176 131.292 15.6214 132.143C16.0297 132.504 16.3864 132.919 16.6816 133.377L16.977 133.794C17.4636 134.42 17.5332 134.541 17.5332 134.75V136.488C17.5332 136.922 17.5332 137.374 17.5332 137.878C17.4287 139.886 17.516 141.9 17.7939 143.891C18.8019 149.835 21.6522 155.293 35.6602 154.823C37.3009 154.773 38.9374 154.628 40.5613 154.389L42.8033 154.285L44.0025 154.145C49.4597 153.502 54.6215 152.894 58.9838 155.379C59.6684 155.725 60.3199 156.132 60.9303 156.596C62.1907 157.559 63.273 158.736 64.1282 160.072C65.4218 162.166 66.4328 164.422 67.1348 166.781L67.2391 167.128H72.8702L72.6616 166.485C71.5674 162.584 69.8032 158.902 67.4477 155.605C65.8966 153.58 63.9515 151.889 61.7298 150.635C58.4528 148.776 54.7182 147.878 50.9543 148.045H50.1549C47.5011 148.097 44.8537 148.323 42.2297 148.723L39.814 149.018C38.4274 149.239 37.0286 149.372 35.6254 149.418C24.5546 149.835 24.0506 146.359 23.6856 143.301C23.4596 141.041 23.4596 138.556 23.4596 136.731V134.611C23.4091 132.997 22.7366 131.465 21.5826 130.335L21.3219 130.005C21.1534 129.674 20.9301 129.375 20.6615 129.119C20.6918 128.001 20.9834 126.906 21.5131 125.921L22.9209 122.862L19.6014 122.028C16.977 121.333 16.2471 120.29 16.1254 120.116C16.2182 119.354 16.3634 118.599 16.5599 117.857C16.8032 117.127 17.0465 116.119 17.2551 115.319V115.145C17.4734 114.387 17.5397 113.592 17.4502 112.808C17.3607 112.024 17.1172 111.265 16.7337 110.575C15.4997 108.837 13.8139 108.333 10.9463 107.637C9.46017 107.419 8.10257 106.673 7.12272 105.534C6.89815 105.212 6.70603 104.869 6.54919 104.509C7.05314 103.476 7.63411 102.483 8.28716 101.537C8.45627 101.182 8.66002 100.844 8.89545 100.529C9.82053 98.7972 10.872 97.1359 12.0412 95.5585L13.2578 93.751C14.8393 91.2831 17.5505 87.1989 18.6802 85.8259C20.8735 83.4306 22.2066 80.3731 22.469 77.136C22.4292 75.3263 22.1962 73.5259 21.7738 71.7657C21.3508 70.0591 21.1234 68.3099 21.096 66.5518C21.533 63.2202 22.4036 59.9599 23.6856 56.8539L23.9289 56.1587C24.6067 53.8472 25.076 51.5357 25.5278 49.2937C25.7723 47.5297 26.1499 45.7868 26.6575 44.0798C28.9277 36.2573 33.014 29.0819 38.5832 23.1381C44.1525 17.1943 51.0473 12.6504 58.7057 9.87657C66.0851 7.5629 73.7438 6.25917 81.4731 6.00089C72.541 9.68421 64.6927 15.5793 58.6666 23.1316C52.6406 30.6839 48.6349 39.6451 47.0265 49.1721C46.818 50.4582 46.6616 51.7964 46.5051 53.0825L46.2966 54.8205V61.9635L46.5573 63.9448C46.7311 65.3874 46.9223 66.8646 47.1829 68.2898C49.3065 80.1281 55.1144 90.9933 63.7781 99.3356C72.4419 107.678 83.5189 113.071 95.429 114.746L98.2793 115.093L99.5306 115.25H106.691L108.672 114.989C110.097 114.815 111.592 114.641 113 114.363C122.001 112.808 130.492 109.095 137.744 103.541C144.997 97.9863 150.795 90.7569 154.642 82.4716C157.632 76.348 159.402 69.7015 159.856 62.9021C159.889 62.6495 159.942 62.3997 160.012 62.1547V54.8205C160.012 54.1774 159.838 53.5344 159.769 52.9087C159.595 51.4836 159.404 50.0063 159.143 48.6159C157.457 39.2279 153.449 30.4109 147.484 22.9678C141.519 15.5247 133.787 9.69204 124.992 6.00089C132.667 6.28945 140.267 7.61658 147.586 9.94609C155.253 12.7073 162.159 17.2418 167.741 23.1798C173.322 29.1178 177.421 36.2911 179.703 44.1146C180.221 45.8189 180.599 47.5627 180.833 49.3285C181.253 51.6717 181.793 53.9921 182.449 56.2804L182.675 56.9756C183.922 60.0742 184.758 63.3229 185.16 66.6387C185.132 68.3967 184.904 70.1457 184.483 71.8526C184.069 73.6085 183.836 75.4022 183.787 77.2056C184.05 80.4426 185.383 83.5002 187.576 85.8954C188.706 87.2684 191.435 91.3526 193.016 93.8379L194.163 95.4542C195.336 97.0267 196.393 98.6821 197.326 100.407C197.562 100.719 197.761 101.057 197.917 101.415C198.571 102.361 199.152 103.354 199.655 104.387C199.512 104.754 199.319 105.099 199.082 105.413C198.114 106.566 196.75 107.317 195.258 107.516C192.408 108.228 190.722 108.715 189.471 110.453C188.695 111.839 188.501 113.477 188.932 115.006V115.198C189.158 116.049 189.401 116.936 189.644 117.718C189.833 118.468 189.978 119.228 190.079 119.994C189.922 120.255 189.193 121.211 186.603 121.906L183.283 122.74L184.691 125.799C185.244 126.771 185.554 127.862 185.595 128.98C185.331 129.246 185.108 129.551 184.935 129.883L184.674 130.214C183.526 131.391 182.878 132.967 182.866 134.611V136.679C182.866 138.417 182.866 140.989 182.64 143.231C182.206 146.307 181.702 149.783 170.579 149.349C169.181 149.318 167.788 149.19 166.408 148.966C165.608 148.862 164.809 148.74 164.027 148.671C161.391 148.272 158.732 148.046 156.067 147.993H155.267C151.51 147.818 147.781 148.709 144.509 150.565C143.771 150.991 143.062 151.468 142.389 151.99C141.029 153.023 139.813 154.233 138.774 155.588C136.417 158.878 134.652 162.554 133.56 166.45L133.352 167.093H139.087V166.763C139.78 164.44 140.767 162.215 142.024 160.142C142.879 158.805 143.961 157.628 145.222 156.666C145.837 156.204 146.494 155.802 147.186 155.466C151.531 152.998 156.675 153.607 162.132 154.25L163.332 154.389L165.574 154.65C167.191 154.89 168.822 155.035 170.457 155.084C184.483 155.536 187.316 150.113 188.306 144.152C188.593 142.167 188.68 140.159 188.567 138.156C188.567 137.635 188.567 137.166 188.567 136.748V134.837C188.567 134.628 188.567 134.506 189.123 133.881L189.384 133.516C189.679 133.058 190.036 132.643 190.444 132.282C190.948 131.431 191.264 130.482 191.372 129.499C191.48 128.516 191.377 127.521 191.07 126.581C192.349 126.132 193.486 125.352 194.366 124.32C195.245 123.288 195.835 122.041 196.075 120.707C196.192 119.733 196.079 118.745 195.745 117.822C195.64 117.405 195.519 116.918 195.397 116.379C195.171 115.702 194.945 114.78 194.737 113.946C194.726 113.737 194.679 113.531 194.598 113.338C195.248 113.131 195.918 112.991 196.596 112.921C199.376 112.421 201.898 110.978 203.739 108.837L203.861 108.698C204.416 108.093 204.846 107.383 205.123 106.61C205.401 105.837 205.521 105.016 205.477 104.196ZM139.139 95.6107L138.513 96.2016C129.82 104.388 118.553 109.303 106.639 110.105H105.718V59.878L139.139 95.6107ZM100.556 59.878V110.123H99.6523C87.7238 109.335 76.4417 104.419 67.7431 96.2189L67.1348 95.5933L100.556 59.878ZM100.556 6.86988V15.2121C100.556 26.9608 100.556 39.0919 100.556 51.0317C100.556 51.8226 100.273 52.5874 99.7566 53.1868C90.7191 62.9368 81.56 72.739 72.6964 82.2283L65.0493 90.3967C64.9414 90.5228 64.8427 90.6564 64.7538 90.7965L64.5627 91.0572L63.937 91.8914L63.2418 91.1093C57.1771 83.7869 53.2572 74.929 51.9162 65.5163C50.5752 56.1035 51.8654 46.5033 55.6439 37.7786C59.4224 29.0539 65.5417 21.5451 73.3244 16.0836C81.1071 10.6222 90.2495 7.42122 99.7392 6.83512L100.556 6.86988ZM106.517 53.3084C106.005 52.7205 105.721 51.9679 105.718 51.1881C105.718 38.3271 105.718 25.3271 105.718 12.7095V8.50357C105.718 8.3124 105.718 8.12122 105.718 7.93004V7.73886V6.90464H106.552C114.739 7.24493 122.705 9.66107 129.702 13.926C138.493 19.1729 145.532 26.9084 149.928 36.1549C154.324 45.4013 155.879 55.7435 154.398 65.874C153.083 75.1872 149.188 83.9466 143.154 91.1615L142.545 91.8914L136.741 85.5999L126.313 74.3553L124.575 72.6173C118.648 66.2216 112.548 59.6868 106.569 53.2389L106.517 53.3084Z" fill="black"/>
<path d="M280.599 38.1355C264.982 38.1355 254.543 48.1569 254.543 63.6901V100.435H259.387C262.31 100.435 264.147 98.5979 264.147 95.675V64.0241C264.147 49.9942 274.419 46.4032 280.599 46.4032C286.611 46.4032 296.967 49.9942 296.967 64.0241V95.675C296.967 98.5979 298.888 100.435 301.727 100.435H306.487V63.6901C306.487 48.1569 296.299 38.1355 280.599 38.1355ZM344.921 39.3047V100.435H348.262L388.598 58.1783V95.508C388.598 98.5144 390.519 100.435 393.525 100.435H398.202V39.3047H394.778L354.525 81.5615V44.2319C354.525 41.2255 352.604 39.3047 349.682 39.3047H344.921Z" fill="black"/>
<path d="M454.355 99.5828C443.081 99.5828 435.481 96.1588 429.051 91.1481L431.139 88.1417C432.726 85.7198 435.147 85.4693 437.82 86.889C442.58 89.5614 448.259 91.3986 454.021 91.3986C462.706 91.3986 467.55 87.5571 467.55 81.7113C467.55 74.6128 460.368 73.1931 452.1 71.5229C444.835 70.1032 429.051 68.3494 429.051 54.403C429.051 40.4566 441.828 36.1975 451.766 36.1975C460.702 36.1975 467.717 38.9534 473.479 43.2125L471.391 46.1354C469.805 48.5572 467.299 48.9747 464.711 47.7221C460.368 45.5508 456.109 44.3816 451.265 44.3816C446.171 44.3816 438.655 46.4694 438.655 53.9854C438.655 61.2509 449.01 62.4201 455.775 63.6728C464.794 65.176 477.154 67.5978 477.154 81.3772C477.154 93.5699 467.8 99.5828 454.355 99.5828ZM503.854 98.3301L534.169 37.1996H537.175L567.573 98.3301H560.725C558.303 98.3301 556.383 97.1609 555.297 94.9896L551.372 86.722H520.055L516.047 94.9896C515.045 97.1609 513.04 98.3301 510.618 98.3301H503.854ZM523.145 79.54H548.282L535.672 52.6493L523.145 79.54ZM592.764 98.3301L623.079 37.1996H626.085L656.484 98.3301H649.636C647.214 98.3301 645.293 97.1609 644.208 94.9896L640.282 86.722H608.966L604.957 94.9896C603.955 97.1609 601.951 98.3301 599.529 98.3301H592.764ZM612.056 79.54H637.193L624.582 52.6493L612.056 79.54ZM691.803 98.3301V45.2167H673.764V41.9598C673.764 39.0369 675.601 37.1996 678.524 37.1996H719.612V40.4566C719.612 43.296 717.691 45.2167 714.852 45.2167H701.406V93.5699C701.406 96.4928 699.486 98.3301 696.646 98.3301H691.803ZM755.354 98.3301C752.598 98.3301 751.012 96.6598 751.012 93.6534V37.1996H755.939C758.945 37.1996 760.615 38.8699 760.615 41.8763V64.7584H794.354V37.1996H799.198C802.288 37.1996 803.958 38.8699 803.958 41.8763V98.3301H799.031C796.024 98.3301 794.354 96.6598 794.354 93.6534V72.7755H760.615V98.3301H755.354ZM848.131 98.3301C845.125 98.3301 843.371 96.4928 843.371 93.2359V37.1996H848.214C851.054 37.1996 852.975 39.0369 852.975 41.9598V98.3301H848.131Z" fill="#B87332"/>
<path d="M256.063 151.67V133.404H257.036L265.32 143.76L273.63 133.404H274.603V151.67H273.28C272.332 151.67 271.733 151.046 271.733 150.123V139.717L265.32 148.002L258.932 139.767V150.123C258.932 151.046 258.333 151.67 257.385 151.67H256.063ZM289.433 152.044C283.893 152.044 280.026 147.777 280.026 142.537C280.026 137.322 283.893 133.03 289.433 133.03C294.998 133.03 298.89 137.322 298.89 142.537C298.89 147.777 294.998 152.044 289.433 152.044ZM282.895 142.537C282.895 146.355 285.69 149.574 289.433 149.574C293.201 149.574 296.021 146.38 296.021 142.537C296.021 138.769 293.201 135.5 289.433 135.5C285.69 135.5 282.895 138.744 282.895 142.537ZM309.706 151.67L301.347 133.404H303.368C304.142 133.404 304.716 133.778 305.015 134.477L310.131 146.355L315.346 134.477C315.645 133.778 316.219 133.404 316.968 133.404H318.939L310.555 151.67H309.706ZM324.809 151.67C323.911 151.67 323.387 151.121 323.387 150.148V133.404H324.834C325.683 133.404 326.256 133.953 326.256 134.827V151.67H324.809ZM332.766 151.67V133.404H333.764L345.816 146.03V134.876C345.816 133.978 346.39 133.404 347.288 133.404H348.686V151.67H347.663L335.635 139.044V150.198C335.635 151.096 335.061 151.67 334.188 151.67H332.766ZM372.587 141.963C372.637 142.487 372.637 143.136 372.637 143.51C372.462 148.251 369.069 152.044 363.504 152.044C358.139 152.044 354.097 147.777 354.097 142.562C354.097 137.347 358.314 133.055 363.504 133.055C366.598 133.055 369.293 134.552 371.015 136.823L369.792 137.521C369.069 137.921 368.52 137.796 367.846 137.222C366.673 136.149 365.176 135.525 363.504 135.525C359.811 135.525 356.941 138.769 356.941 142.562C356.941 146.305 359.636 149.499 363.429 149.574C366.823 149.624 369.543 147.528 369.767 144.508H364.378C363.479 144.508 362.955 144.034 362.955 143.111V141.963H372.587ZM386.875 151.67V133.404H399.551V134.427C399.551 135.301 399.052 135.8 398.154 135.8H389.745V141.664H397.929V142.637C397.929 143.535 397.43 144.034 396.532 144.034H389.745V150.248C389.745 151.121 389.196 151.67 388.322 151.67H386.875ZM411.863 152.044C406.323 152.044 402.455 147.777 402.455 142.537C402.455 137.322 406.323 133.03 411.863 133.03C417.427 133.03 421.32 137.322 421.32 142.537C421.32 147.777 417.427 152.044 411.863 152.044ZM405.325 142.537C405.325 146.355 408.12 149.574 411.863 149.574C415.631 149.574 418.45 146.38 418.45 142.537C418.45 138.769 415.631 135.5 411.863 135.5C408.12 135.5 405.325 138.744 405.325 142.537ZM426.725 151.67V133.404H434.935C438.578 133.404 441.098 135.949 441.098 139.568C441.098 142.387 439.526 144.608 436.632 145.157L441.398 151.67H439.127C438.453 151.67 437.854 151.395 437.455 150.822L433.662 145.506H429.595V150.198C429.595 151.096 429.021 151.67 428.122 151.67H426.725ZM429.595 143.136H434.56C436.232 143.136 438.253 142.063 438.253 139.518C438.253 138.045 437.43 135.8 434.56 135.8H429.595V143.136ZM450.347 151.67L444.134 133.404H445.906C446.704 133.404 447.328 133.853 447.578 134.602L451.046 145.357L455.438 133.404H456.386L460.828 145.382L464.271 134.627C464.521 133.853 465.145 133.404 465.943 133.404H467.74L461.501 151.67H460.653L455.912 139.318L451.171 151.67H450.347ZM468.427 151.67L477.485 133.404H478.384L487.467 151.67H485.421C484.697 151.67 484.123 151.321 483.799 150.672L482.626 148.201H473.268L472.071 150.672C471.771 151.321 471.172 151.67 470.449 151.67H468.427ZM474.192 146.055H481.702L477.935 138.021L474.192 146.055ZM491.605 151.67V133.404H499.815C503.458 133.404 505.978 135.949 505.978 139.568C505.978 142.387 504.406 144.608 501.512 145.157L506.278 151.67H504.007C503.333 151.67 502.735 151.395 502.335 150.822L498.542 145.506H494.475V150.198C494.475 151.096 493.901 151.67 493.003 151.67H491.605ZM494.475 143.136H499.441C501.113 143.136 503.134 142.063 503.134 139.518C503.134 138.045 502.31 135.8 499.441 135.8H494.475V143.136ZM511.591 151.67V133.404H518.703C524.143 133.404 527.811 136.573 527.811 142.537C527.811 148.476 524.168 151.695 518.703 151.67H511.591ZM514.461 149.274H518.429C520.874 149.274 524.916 148.201 524.916 142.562C524.916 136.898 520.849 135.775 518.429 135.775H514.461V149.274ZM532.91 154.44C532.76 154.265 532.66 154.09 532.66 153.866C532.66 153.641 532.785 153.417 533.06 153.192C533.459 152.818 533.808 152.369 533.858 151.795C532.71 151.745 532.311 151.046 532.311 150.273C532.311 149.449 532.985 148.676 533.908 148.676C535.056 148.676 535.705 149.574 535.705 150.822C535.705 152.069 534.856 154.09 532.91 154.44ZM553.302 151.67V135.8H547.912V134.827C547.912 133.953 548.461 133.404 549.334 133.404H561.611V134.377C561.611 135.226 561.038 135.8 560.189 135.8H556.172V150.248C556.172 151.121 555.598 151.67 554.749 151.67H553.302ZM573.655 152.044C568.115 152.044 564.248 147.777 564.248 142.537C564.248 137.322 568.115 133.03 573.655 133.03C579.22 133.03 583.112 137.322 583.112 142.537C583.112 147.777 579.22 152.044 573.655 152.044ZM567.117 142.537C567.117 146.355 569.912 149.574 573.655 149.574C577.423 149.574 580.243 146.38 580.243 142.537C580.243 138.769 577.423 135.5 573.655 135.5C569.912 135.5 567.117 138.744 567.117 142.537ZM606.184 141.963C606.234 142.487 606.234 143.136 606.234 143.51C606.06 148.251 602.666 152.044 597.101 152.044C591.736 152.044 587.694 147.777 587.694 142.562C587.694 137.347 591.911 133.055 597.101 133.055C600.196 133.055 602.89 134.552 604.612 136.823L603.39 137.521C602.666 137.921 602.117 137.796 601.443 137.222C600.27 136.149 598.773 135.525 597.101 135.525C593.408 135.525 590.539 138.769 590.539 142.562C590.539 146.305 593.234 149.499 597.026 149.574C600.42 149.624 603.14 147.528 603.365 144.508H597.975C597.076 144.508 596.552 144.034 596.552 143.111V141.963H606.184ZM611.501 151.67V133.404H624.352V134.427C624.352 135.301 623.853 135.8 622.954 135.8H614.37V141.464H622.231V142.437C622.231 143.336 621.732 143.835 620.833 143.835H614.37V149.274H622.929C623.803 149.274 624.352 149.848 624.352 150.697V151.67H611.501ZM632.49 151.67V135.8H627.101V134.827C627.101 133.953 627.65 133.404 628.523 133.404H640.8V134.377C640.8 135.226 640.226 135.8 639.378 135.8H635.36V150.248C635.36 151.121 634.786 151.67 633.938 151.67H632.49ZM646.239 151.67C645.416 151.67 644.942 151.171 644.942 150.273V133.404H646.414C647.312 133.404 647.812 133.903 647.812 134.802V141.639H657.893V133.404H659.34C660.263 133.404 660.762 133.903 660.762 134.802V151.67H659.29C658.392 151.67 657.893 151.171 657.893 150.273V144.034H647.812V151.67H646.239ZM666.999 151.67V133.404H679.85V134.427C679.85 135.301 679.351 135.8 678.453 135.8H669.869V141.464H677.729V142.437C677.729 143.336 677.23 143.835 676.332 143.835H669.869V149.274H678.428C679.301 149.274 679.85 149.848 679.85 150.697V151.67H666.999ZM684.451 151.67V133.404H692.66C696.304 133.404 698.824 135.949 698.824 139.568C698.824 142.387 697.252 144.608 694.357 145.157L699.123 151.67H696.853C696.179 151.67 695.58 151.395 695.181 150.822L691.388 145.506H687.32V150.198C687.32 151.096 686.747 151.67 685.848 151.67H684.451ZM687.32 143.136H692.286C693.958 143.136 695.979 142.063 695.979 139.518C695.979 138.045 695.156 135.8 692.286 135.8H687.32V143.136ZM721.992 152.044C716.453 152.044 712.585 147.777 712.585 142.537C712.585 137.322 716.453 133.03 721.992 133.03C727.557 133.03 731.449 137.322 731.449 142.537C731.449 147.777 727.557 152.044 721.992 152.044ZM715.454 142.537C715.454 146.355 718.249 149.574 721.992 149.574C725.76 149.574 728.58 146.38 728.58 142.537C728.58 138.769 725.76 135.5 721.992 135.5C718.249 135.5 715.454 138.744 715.454 142.537ZM736.855 151.67V133.404H745.064C748.707 133.404 751.228 135.949 751.228 139.568C751.228 142.387 749.656 144.608 746.761 145.157L751.527 151.67H749.256C748.583 151.67 747.984 151.395 747.584 150.822L743.792 145.506H739.724V150.198C739.724 151.096 739.15 151.67 738.252 151.67H736.855ZM739.724 143.136H744.69C746.362 143.136 748.383 142.063 748.383 139.518C748.383 138.045 747.559 135.8 744.69 135.8H739.724V143.136ZM761.499 151.67L770.557 133.404H771.455L780.538 151.67H778.492C777.768 151.67 777.195 151.321 776.87 150.672L775.697 148.201H766.34L765.142 150.672C764.843 151.321 764.244 151.67 763.52 151.67H761.499ZM767.263 146.055H774.774L771.006 138.021L767.263 146.055ZM784.701 151.67V133.404H792.112C796.754 133.404 799.124 136.224 799.124 139.767C799.124 143.286 796.754 145.906 792.162 145.906H787.571V150.198C787.571 151.096 786.997 151.67 786.124 151.67H784.701ZM787.571 143.56H792.112C794.807 143.56 796.255 141.863 796.255 139.767C796.255 137.621 794.757 135.8 792.013 135.8H787.571V143.56ZM800.058 151.67L809.116 133.404H810.014L819.097 151.67H817.051C816.327 151.67 815.753 151.321 815.429 150.672L814.256 148.201H804.898L803.701 150.672C803.401 151.321 802.802 151.67 802.079 151.67H800.058ZM805.822 146.055H813.333L809.565 138.021L805.822 146.055ZM823.236 151.67V133.404H831.445C835.088 133.404 837.609 135.949 837.609 139.568C837.609 142.387 836.037 144.608 833.142 145.157L837.908 151.67H835.637C834.964 151.67 834.365 151.395 833.965 150.822L830.173 145.506H826.105V150.198C826.105 151.096 825.531 151.67 824.633 151.67H823.236ZM826.105 143.136H831.071C832.743 143.136 834.764 142.063 834.764 139.518C834.764 138.045 833.94 135.8 831.071 135.8H826.105V143.136ZM845.663 151.67V135.8H840.273V134.827C840.273 133.953 840.822 133.404 841.695 133.404H853.972V134.377C853.972 135.226 853.398 135.8 852.55 135.8H848.533V150.248C848.533 151.121 847.959 151.67 847.11 151.67H845.663Z" fill="black"/>
</svg>
